<svg xmlns="http://www.w3.org/2000/svg" version="1.1" xmlns:xlink="http://www.w3.org/1999/xlink" xmlns:svgjs="http://svgjs.com/svgjs" width="512" height="512" x="0" y="0" viewBox="0 0 682.667 682.667" style="enable-background:new 0 0 512 512" xml:space="preserve" class=""><g><defs><clipPath id="a" clipPathUnits="userSpaceOnUse"><path d="M0 512h512V0H0Z" fill="#000000" opacity="1" data-original="#000000"></path></clipPath></defs><g clip-path="url(#a)" transform="matrix(1.33333 0 0 -1.33333 0 682.667)"><path d="M0 0h-59.857v-226.46h29.928v140.558c0 8.264 6.7 14.964 14.965 14.964C-6.7-70.938 0-77.638 0-85.902v-47.78c0-8.264 6.7-14.964 14.964-14.964 8.265 0 14.965 6.7 14.965 14.964V0Z" style="fill-opacity:1;fill-rule:nonzero;stroke:none" transform="translate(378.948 389.767)" fill="#ffe063" data-original="#ffe063" class=""></path><path d="M0 0v135.42" style="stroke-width:15;stroke-linecap:round;stroke-linejoin:round;stroke-miterlimit:10;stroke-dasharray:none;stroke-opacity:1" transform="translate(319.09 231.778)" fill="none" stroke="#000000" stroke-width="15" stroke-linecap="round" stroke-linejoin="round" stroke-miterlimit="10" stroke-dasharray="none" stroke-opacity="" data-original="#000000" class=""></path><path d="M0 0v-47.14c0-4.13-1.68-7.88-4.38-10.59-2.71-2.7-6.46-4.38-10.59-4.38-8.26 0-14.96 6.7-14.96 14.97V.64c0 4.13-1.67 7.87-4.38 10.58A14.917 14.917 0 0 1-44.9 15.6c-8.26 0-14.96-6.7-14.96-14.96V-85.1" style="stroke-width:15;stroke-linecap:round;stroke-linejoin:round;stroke-miterlimit:10;stroke-dasharray:none;stroke-opacity:1" transform="translate(408.88 303.23)" fill="none" stroke="#000000" stroke-width="15" stroke-linecap="round" stroke-linejoin="round" stroke-miterlimit="10" stroke-dasharray="none" stroke-opacity="" data-original="#000000" class=""></path><path d="M0 0v36.38" style="stroke-width:15;stroke-linecap:round;stroke-linejoin:round;stroke-miterlimit:10;stroke-dasharray:none;stroke-opacity:1" transform="translate(408.88 338.23)" fill="none" stroke="#000000" stroke-width="15" stroke-linecap="round" stroke-linejoin="round" stroke-miterlimit="10" stroke-dasharray="none" stroke-opacity="" data-original="#000000" class=""></path><path d="M0 0c25.712 0 46.556 13.102 46.556 29.264 0 15.504-19.186 28.184-43.446 29.191.868 2.233 1.338 4.564 1.338 6.965 0 16.162-20.844 29.264-46.556 29.264-3.559 0-7.02-.26-10.351-.735a18.83 18.83 0 0 1 .547 4.493c0 16.162-20.844 29.264-46.556 29.264-2.308 0-4.575-.11-6.792-.314.25 1.23.393 2.48.393 3.752 0 16.162-20.843 29.264-46.555 29.264s-46.556-13.102-46.556-29.264c0-1.272.144-2.522.394-3.752a74.141 74.141 0 0 1-6.792.314c-25.713 0-46.556-13.102-46.556-29.264 0-1.528.187-3.028.547-4.493a73.342 73.342 0 0 1-10.352.735c-25.712 0-46.556-13.102-46.556-29.264 0-2.401.471-4.732 1.338-6.965-24.26-1.007-43.445-13.687-43.445-29.191C-349.4 13.102-328.557 0-302.844 0" style="fill-opacity:1;fill-rule:nonzero;stroke:none" transform="translate(407.422 104.779)" fill="#ffa449" data-original="#ffa449" class=""></path><path d="M0 0c0-1.28.11-2.53.31-3.76-1.7.21-3.43.32-5.2.32-19.67 0-35.61-13.11-35.61-29.27 0-1.52.14-3.03.42-4.49-2.55.48-5.2.74-7.92.74-19.67 0-35.61-13.11-35.61-29.27 0-2.4.36-4.73 1.02-6.96-18.55-1.01-33.23-13.69-33.23-29.2 0-16.16 15.95-29.26 35.61-29.26h-82.49c-25.71 0-46.55 13.1-46.55 29.26 0 15.51 19.18 28.19 43.44 29.2-.86 2.23-1.33 4.56-1.33 6.96 0 16.16 20.84 29.27 46.55 29.27 3.56 0 7.02-.26 10.35-.74-.36 1.46-.54 2.97-.54 4.49 0 16.16 20.84 29.27 46.55 29.27 2.31 0 4.58-.11 6.79-.32-.25 1.23-.39 2.48-.39 3.76 0 16.16 20.84 29.26 46.56 29.26 9.88 0 19.03-1.93 26.56-5.23C6.05 18.74 0 9.95 0 0" style="fill-opacity:1;fill-rule:nonzero;stroke:none" transform="translate(267.272 235.933)" fill="#ff9000" data-original="#ff9000"></path><path d="M0 0c4.07.74 8.37 1.13 12.82 1.13 3.55 0 7.02-.26 10.35-.74-.36 1.46-.55 2.97-.55 4.49 0 16.16 20.84 29.27 46.56 29.27 2.3 0 4.57-.11 6.79-.32-.25 1.23-.4 2.48-.4 3.76 0 16.16 20.85 29.26 46.56 29.26s46.56-13.1 46.56-29.26c0-1.28-.15-2.53-.4-3.76 2.22.21 4.49.32 6.79.32 25.72 0 46.56-13.11 46.56-29.27 0-1.52-.19-3.03-.55-4.49 3.33.48 6.8.74 10.35.74 25.72 0 46.56-13.11 46.56-29.27 0-2.4-.47-4.73-1.34-6.96 24.26-1.01 43.45-13.69 43.45-29.2 0-4.65-1.72-9.04-4.79-12.94" style="stroke-width:15;stroke-linecap:round;stroke-linejoin:round;stroke-miterlimit:10;stroke-dasharray:none;stroke-opacity:1" transform="translate(133.87 198.34)" fill="none" stroke="#000000" stroke-width="15" stroke-linecap="round" stroke-linejoin="round" stroke-miterlimit="10" stroke-dasharray="none" stroke-opacity="" data-original="#000000" class=""></path><path d="M0 0c-3.07 3.9-4.79 8.29-4.79 12.94 0 15.51 19.19 28.19 43.45 29.2-.87 2.23-1.34 4.56-1.34 6.96 0 3.96 1.25 7.74 3.53 11.19" style="stroke-width:15;stroke-linecap:round;stroke-linejoin:round;stroke-miterlimit:10;stroke-dasharray:none;stroke-opacity:1" transform="translate(62.81 121.1)" fill="none" stroke="#000000" stroke-width="15" stroke-linecap="round" stroke-linejoin="round" stroke-miterlimit="10" stroke-dasharray="none" stroke-opacity="" data-original="#000000" class=""></path><path d="m0 0 10.776-30.212a24.612 24.612 0 0 1 23.182-16.344h305.094a24.612 24.612 0 0 1 23.182 16.344L373.01 0 186.505 23.943Z" style="fill-opacity:1;fill-rule:nonzero;stroke:none" transform="translate(69.495 73.213)" fill="#e7edf3" data-original="#e7edf3"></path><path d="M0 0h-65.85c-10.4 0-19.68 6.54-23.18 16.34l-10.78 30.21L86.7 70.49l32.92-4.23-153.58-19.71 10.77-30.21A24.62 24.62 0 0 1 0 0" style="fill-opacity:1;fill-rule:nonzero;stroke:none" transform="translate(169.303 26.658)" fill="#d6e8ed" data-original="#d6e8ed"></path><path d="M0 0h-449.114c-13.223 0-23.943-10.72-23.943-23.943s10.72-23.943 23.943-23.943H0c13.223 0 23.943 10.72 23.943 23.943S13.223 0 0 0" style="fill-opacity:1;fill-rule:nonzero;stroke:none" transform="translate(480.557 121.1)" fill="#e7edf3" data-original="#e7edf3"></path><path d="M0 0a23.875 23.875 0 0 1 16.93-7.01h-91.78c-6.61 0-12.6 2.68-16.93 7.01-4.33 4.34-7.01 10.32-7.01 16.94 0 13.22 10.72 23.94 23.94 23.94h91.78c-13.22 0-23.94-10.72-23.94-23.94C-7.01 10.32-4.33 4.34 0 0" style="fill-opacity:1;fill-rule:nonzero;stroke:none" transform="translate(106.29 80.216)" fill="#d6e8ed" data-original="#d6e8ed"></path><path d="M0 0h-449.114c-13.223 0-23.943-10.72-23.943-23.943v0c0-13.223 10.72-23.943 23.943-23.943H0c13.223 0 23.943 10.72 23.943 23.943v0C23.943-10.72 13.223 0 0 0Z" style="stroke-width:15;stroke-linecap:round;stroke-linejoin:round;stroke-miterlimit:10;stroke-dasharray:none;stroke-opacity:1" transform="translate(480.557 121.1)" fill="none" stroke="#000000" stroke-width="15" stroke-linecap="round" stroke-linejoin="round" stroke-miterlimit="10" stroke-dasharray="none" stroke-opacity="" data-original="#000000" class=""></path><path d="m0 0-10.776-30.212a24.612 24.612 0 0 0-23.182-16.344h-305.094a24.612 24.612 0 0 0-23.182 16.344L-373.01 0" style="stroke-width:15;stroke-linecap:round;stroke-linejoin:round;stroke-miterlimit:10;stroke-dasharray:none;stroke-opacity:1" transform="translate(442.505 73.213)" fill="none" stroke="#000000" stroke-width="15" stroke-linecap="round" stroke-linejoin="round" stroke-miterlimit="10" stroke-dasharray="none" stroke-opacity="" data-original="#000000" class=""></path><path d="m0 0-368.324-30.377c-8.538-.704-15.974 5.776-16.443 14.33l-1.13 20.57c-.47 8.554 6.212 15.81 14.776 16.045L-1.686 30.703c8.327.229 15.322-6.214 15.779-14.531C14.55 7.854 8.302.685 0 0" style="fill-opacity:1;fill-rule:nonzero;stroke:none" transform="translate(427.241 376.114)" fill="#d08a76" data-original="#d08a76" class=""></path><path d="M0 0a15.347 15.347 0 0 0-3.765-10.953 15.301 15.301 0 0 0-10.329-5.224l-368.329-30.371c-8.534-.709-15.971 5.773-16.441 14.33l-.416 7.588c.123-2.246 7.282-3.666 15.826-3.137L-14.716-4.854c4.162.258 7.871.923 10.517 1.799C-1.543-2.178.06-1.088 0 0" style="fill-opacity:1;fill-rule:nonzero;stroke:none" transform="translate(441.34 392.285)" fill="#c7785e" data-original="#c7785e" class=""></path><path d="m0 0 29.08.8c8.32.23 15.32-6.21 15.77-14.53.02-.29.02-.58.02-.86 0-7.95-6.1-14.65-14.11-15.31l-368.32-30.38c-8.54-.7-15.98 5.78-16.45 14.33l-1.13 20.57c-.47 8.55 6.22 15.81 14.78 16.04l200.79 5.51" style="stroke-width:15;stroke-linecap:round;stroke-linejoin:round;stroke-miterlimit:10;stroke-dasharray:none;stroke-opacity:1" transform="translate(396.48 406.018)" fill="none" stroke="#000000" stroke-width="15" stroke-linecap="round" stroke-linejoin="round" stroke-miterlimit="10" stroke-dasharray="none" stroke-opacity="" data-original="#000000" class=""></path><path d="m0 0-369.435-10.136c-8.564-.235-15.633 6.643-15.633 15.21v20.601c0 8.567 7.069 15.445 15.633 15.21L0 30.75c8.327-.229 14.959-7.045 14.959-15.375S8.327.228 0 0" style="fill-opacity:1;fill-rule:nonzero;stroke:none" transform="translate(425.555 406.817)" fill="#d08a76" data-original="#d08a76" class=""></path><path d="M0 0c0-4.17-1.66-7.95-4.36-10.73a15.3 15.3 0 0 0-10.6-4.65L-384.4-25.51c-8.56-.24-15.63 6.64-15.63 15.21v7.6c0-2.25 7.07-4.06 15.63-4l369.44 2.66c4.17.03 7.91.49 10.6 1.22C-1.66-2.09 0-1.09 0 0" style="fill-opacity:1;fill-rule:nonzero;stroke:none" transform="translate(440.52 422.191)" fill="#c7785e" data-original="#c7785e" class=""></path><path d="m0 0-200.79-5.51c-8.56-.23-15.63 6.65-15.63 15.21v20.6c0 8.57 7.07 15.45 15.63 15.21l216.45-5.93" style="stroke-width:15;stroke-linecap:round;stroke-linejoin:round;stroke-miterlimit:10;stroke-dasharray:none;stroke-opacity:1" transform="translate(256.91 402.188)" fill="none" stroke="#000000" stroke-width="15" stroke-linecap="round" stroke-linejoin="round" stroke-miterlimit="10" stroke-dasharray="none" stroke-opacity="" data-original="#000000" class=""></path><path d="m0 0 14.32-.39c8.32-.23 14.95-7.05 14.95-15.38 0-4.17-1.66-7.95-4.35-10.72-2.7-2.77-6.44-4.53-10.6-4.65l-29.08-.8" style="stroke-width:15;stroke-linecap:round;stroke-linejoin:round;stroke-miterlimit:10;stroke-dasharray:none;stroke-opacity:1" transform="translate(411.24 437.958)" fill="none" stroke="#000000" stroke-width="15" stroke-linecap="round" stroke-linejoin="round" stroke-miterlimit="10" stroke-dasharray="none" stroke-opacity="" data-original="#000000" class=""></path><path d="M0 0c-13.375 5.141-22.301 14.407-22.301 24.983" style="stroke-width:15;stroke-linecap:round;stroke-linejoin:round;stroke-miterlimit:10;stroke-dasharray:none;stroke-opacity:1" transform="translate(178.79 178.238)" fill="none" stroke="#000000" stroke-width="15" stroke-linecap="round" stroke-linejoin="round" stroke-miterlimit="10" stroke-dasharray="none" stroke-opacity="" data-original="#000000" class=""></path><path d="M0 0c8.293 8.057 22.714 13.389 39.117 13.389 12.453 0 23.764-3.074 32.118-8.08" style="stroke-width:15;stroke-linecap:round;stroke-linejoin:round;stroke-miterlimit:10;stroke-dasharray:none;stroke-opacity:1" transform="translate(279.642 156.81)" fill="none" stroke="#000000" stroke-width="15" stroke-linecap="round" stroke-linejoin="round" stroke-miterlimit="10" stroke-dasharray="none" stroke-opacity="" data-original="#000000" class=""></path><path d="M0 0c0-9.558-7.29-18.046-18.565-23.386" style="stroke-width:15;stroke-linecap:round;stroke-linejoin:round;stroke-miterlimit:10;stroke-dasharray:none;stroke-opacity:1" transform="translate(302.556 235.923)" fill="none" stroke="#000000" stroke-width="15" stroke-linecap="round" stroke-linejoin="round" stroke-miterlimit="10" stroke-dasharray="none" stroke-opacity="" data-original="#000000" class=""></path><path d="M0 0c0 16.162 20.844 29.264 46.556 29.264" style="stroke-width:15;stroke-linecap:round;stroke-linejoin:round;stroke-miterlimit:10;stroke-dasharray:none;stroke-opacity:1" transform="translate(318.759 170.2)" fill="none" stroke="#000000" stroke-width="15" stroke-linecap="round" stroke-linejoin="round" stroke-miterlimit="10" stroke-dasharray="none" stroke-opacity="" data-original="#000000" class=""></path><path d="M0 0c16.393 0 30.808-5.326 39.103-13.375" style="stroke-width:15;stroke-linecap:round;stroke-linejoin:round;stroke-miterlimit:10;stroke-dasharray:none;stroke-opacity:1" transform="translate(203.046 232.484)" fill="none" stroke="#000000" stroke-width="15" stroke-linecap="round" stroke-linejoin="round" stroke-miterlimit="10" stroke-dasharray="none" stroke-opacity="" data-original="#000000" class=""></path><path d="M0 0c0 16.162 20.844 29.264 46.556 29.264 25.712 0 46.555-13.102 46.555-29.264S72.268-29.264 46.556-29.264 0-16.162 0 0" style="fill-opacity:1;fill-rule:nonzero;stroke:none" transform="translate(265.642 456.072)" fill="#ffa449" data-original="#ffa449" class=""></path><path d="M0 0c-4.55-.94-9.41-1.45-14.46-1.45-25.72 0-46.56 13.1-46.56 29.26 0 16.17 20.84 29.27 46.56 29.27 5.05 0 9.91-.5 14.46-1.44-18.63-3.83-32.09-14.84-32.09-27.83C-32.09 14.82-18.63 3.82 0 0" style="fill-opacity:1;fill-rule:nonzero;stroke:none" transform="translate(326.662 428.262)" fill="#ff9000" data-original="#ff9000"></path><path d="M0 0c-.09.11-.19.22-.29.33C-4.06 4.55-6.2 9.42-6.2 14.6c0 15.54 19.26 28.25 43.58 29.2" style="stroke-width:15;stroke-linecap:round;stroke-linejoin:round;stroke-miterlimit:10;stroke-dasharray:none;stroke-opacity:1" transform="translate(271.84 441.47)" fill="none" stroke="#000000" stroke-width="15" stroke-linecap="round" stroke-linejoin="round" stroke-miterlimit="10" stroke-dasharray="none" stroke-opacity="" data-original="#000000" class=""></path><path d="M0 0c9.07-5.06 14.96-12.32 15.57-20.45" style="stroke-width:15;stroke-linecap:round;stroke-linejoin:round;stroke-miterlimit:10;stroke-dasharray:none;stroke-opacity:1" transform="translate(343.12 477.94)" fill="none" stroke="#000000" stroke-width="15" stroke-linecap="round" stroke-linejoin="round" stroke-miterlimit="10" stroke-dasharray="none" stroke-opacity="" data-original="#000000" class=""></path><path d="M0 0c0 16.162 20.844 29.264 46.556 29.264 25.712 0 46.555-13.102 46.555-29.264S72.268-29.264 46.556-29.264 0-16.162 0 0" style="fill-opacity:1;fill-rule:nonzero;stroke:none" transform="translate(250.587 416.919)" fill="#ffa449" data-original="#ffa449" class=""></path><path d="M0 0c-4.55-.94-9.41-1.45-14.46-1.45-25.72 0-46.56 13.1-46.56 29.26 0 16.17 20.84 29.27 46.56 29.27 5.05 0 9.91-.5 14.46-1.44-18.63-3.83-32.09-14.84-32.09-27.83C-32.09 14.82-18.63 3.82 0 0" style="fill-opacity:1;fill-rule:nonzero;stroke:none" transform="translate(311.607 389.109)" fill="#ff9000" data-original="#ff9000"></path><path d="M0 0c-7.68 3.51-17.14 5.59-27.37 5.59-9.02 0-17.44-1.62-24.57-4.41-13.2-5.16-21.98-14.36-21.98-24.85 0-5.37 2.3-10.4 6.32-14.73 8.07-8.69 23.06-14.53 40.23-14.53 18.62 0 34.68 6.87 42.13 16.79.01 0 .01.01.01.01l.42.57" style="stroke-width:15;stroke-linecap:round;stroke-linejoin:round;stroke-miterlimit:10;stroke-dasharray:none;stroke-opacity:1" transform="translate(324.51 440.588)" fill="none" stroke="#000000" stroke-width="15" stroke-linecap="round" stroke-linejoin="round" stroke-miterlimit="10" stroke-dasharray="none" stroke-opacity="" data-original="#000000" class=""></path><path d="M0 0c0 16.162 20.844 29.264 46.556 29.264 25.712 0 46.556-13.102 46.556-29.264S72.268-29.264 46.556-29.264C20.844-29.264 0-16.162 0 0" style="fill-opacity:1;fill-rule:nonzero;stroke:none" transform="translate(320.511 428.702)" fill="#ffa449" data-original="#ffa449" class=""></path><path d="M0 0c-4.55-.94-9.41-1.45-14.46-1.45-25.72 0-46.56 13.1-46.56 29.26 0 16.17 20.84 29.27 46.56 29.27 5.05 0 9.91-.5 14.46-1.44-18.63-3.83-32.09-14.84-32.09-27.83C-32.09 14.82-18.63 3.82 0 0" style="fill-opacity:1;fill-rule:nonzero;stroke:none" transform="translate(381.531 400.892)" fill="#ff9000" data-original="#ff9000"></path><path d="M0 0c0 16.162 20.844 29.264 46.556 29.264 25.712 0 46.556-13.102 46.556-29.264S72.268-29.264 46.556-29.264C20.844-29.264 0-16.162 0 0Z" style="stroke-width:15;stroke-linecap:round;stroke-linejoin:round;stroke-miterlimit:10;stroke-dasharray:none;stroke-opacity:1" transform="translate(320.511 428.702)" fill="none" stroke="#000000" stroke-width="15" stroke-linecap="round" stroke-linejoin="round" stroke-miterlimit="10" stroke-dasharray="none" stroke-opacity="" data-original="#000000" class=""></path></g></g></svg>